{
  "accessors": [
    {
      "bufferView": 2,
      "componentType": 5126,
      "count": 2125,
      "max": [
        0.3539123237133026,
        0.3539123237133026,
        1.0144269466400146
      ],
      "min": [
        -0.3539123237133026,
        -0.3539123237133026,
        0.00010232997010461986
      ],
      "type": "VEC3"
    },
    {
      "bufferView": 2,
      "byteOffset": 25500,
      "componentType": 5126,
      "count": 2125,
      "max": [
        0.9999995827674866,
        0.9999995231628418,
        1.0
      ],
      "min": [
        -0.9999995827674866,
        -0.9999995231628418,
        -1.0
      ],
      "type": "VEC3"
    },
    {
      "bufferView": 3,
      "componentType": 5126,
      "count": 2125,
      "max": [
        1.0,
        1.0,
        0.9999967217445374,
        1.0
      ],
      "min": [
        -1.0,
        -1.0,
        -0.9999995827674866,
        1.0
      ],
      "type": "VEC4"
    },
    {
      "bufferView": 1,
      "componentType": 5126,
      "count": 2125,
      "max": [
        0.9976248741149902,
        0.998046875
      ],
      "min": [
        0.001953020691871643,
        0.001953125
      ],
      "type": "VEC2"
    },
    {
      "bufferView": 0,
      "componentType": 5125,
      "count": 6252,
      "type": "SCALAR"
    }
  ],
  "asset": {
    "extras": {
      "author": "Arthur.Zim (https://sketchfab.com/Arthur.Zim)",
      "license": "CC-BY-4.0 (http://creativecommons.org/licenses/by/4.0/)",
      "source": "https://sketchfab.com/3d-models/low-poly-barrel-7-bb7998ad7ffb4a88aa7bf1072a750247",
      "title": "Low Poly Barrel 7"
    },
    "generator": "Sketchfab-12.67.0",
    "version": "2.0"
  },
  "bufferViews": [
    {
      "buffer": 0,
      "byteLength": 25008,
      "name": "floatBufferViews",
      "target": 34963
    },
    {
      "buffer": 0,
      "byteLength": 17000,
      "byteOffset": 25008,
      "byteStride": 8,
      "name": "floatBufferViews",
      "target": 34962
    },
    {
      "buffer": 0,
      "byteLength": 51000,
      "byteOffset": 42008,
      "byteStride": 12,
      "name": "floatBufferViews",
      "target": 34962
    },
    {
      "buffer": 0,
      "byteLength": 34000,
      "byteOffset": 93008,
      "byteStride": 16,
      "name": "floatBufferViews",
      "target": 34962
    }
  ],
  "buffers": [
    {
      "byteLength": 127008,
      "uri": "scene.bin"
    }
  ],
  "images": [
    {
      "uri": "textures/M_barrel_baseColor.png"
    },
    {
      "uri": "textures/M_barrel_metallicRoughness.png"
    },
    {
      "uri": "textures/M_barrel_normal.png"
    }
  ],
  "materials": [
    {
      "doubleSided": true,
      "name": "M_barrel",
      "normalTexture": {
        "index": 2
      },
      "occlusionTexture": {
        "index": 1
      },
      "pbrMetallicRoughness": {
        "baseColorTexture": {
          "index": 0
        },
        "metallicRoughnessTexture": {
          "index": 1
        }
      }
    }
  ],
  "meshes": [
    {
      "name": "barrel_M_barrel_0",
      "primitives": [
        {
          "attributes": {
            "NORMAL": 1,
            "POSITION": 0,
            "TANGENT": 2,
            "TEXCOORD_0": 3
          },
          "indices": 4,
          "material": 0,
          "mode": 4
        }
      ]
    }
  ],
  "nodes": [
    {
      "children": [
        1
      ],
      "matrix": [
        1.0,
        0.0,
        0.0,
        0.0,
        0.0,
        2.220446049250313e-16,
        -1.0,
        0.0,
        0.0,
        1.0,
        2.220446049250313e-16,
        0.0,
        0.0,
        0.0,
        0.0,
        1.0
      ],
      "name": "Sketchfab_model"
    },
    {
      "children": [
        2
      ],
      "matrix": [
        1.0,
        0.0,
        0.0,
        0.0,
        0.0,
        0.0,
        1.0,
        0.0,
        0.0,
        -1.0,
        0.0,
        0.0,
        0.0,
        0.0,
        0.0,
        1.0
      ],
      "name": "7a80c32bcfd64df385c6f791425d4e34.fbx"
    },
    {
      "children": [
        3
      ],
      "name": "RootNode"
    },
    {
      "children": [
        4
      ],
      "matrix": [
        1.0,
        0.0,
        0.0,
        0.0,
        0.0,
        -1.6292067939183141e-07,
        -0.9999999999999868,
        0.0,
        0.0,
        0.9999999999999868,
        -1.6292067939183141e-07,
        0.0,
        0.0,
        0.0,
        0.0,
        1.0
      ],
      "name": "barrel"
    },
    {
      "mesh": 0,
      "name": "barrel_M_barrel_0"
    }
  ],
  "samplers": [
    {
      "magFilter": 9729,
      "minFilter": 9987,
      "wrapS": 10497,
      "wrapT": 10497
    }
  ],
  "scene": 0,
  "scenes": [
    {
      "name": "Sketchfab_Scene",
      "nodes": [
        0
      ]
    }
  ],
  "textures": [
    {
      "sampler": 0,
      "source": 0
    },
    {
      "sampler": 0,
      "source": 1
    },
    {
      "sampler": 0,
      "source": 2
    }
  ]
}
